<svg xmlns="http://www.w3.org/2000/svg" width="48" height="48" viewBox="0 0 48 48">
    <g fill="none" fill-rule="evenodd">
        <g>
            <g>
                <g>
                    <g>
                        <path fill="#333" d="M24 9.6c2.714 0 4.917 2.217 5.044 4.988l.006.253v1.596h7.288c1.563 0 2.738 1.436 2.658 3.067l-.013.175-1.522 14.738c-.232 2.25-1.943 3.983-4.025 3.983H14.564c-2.081 0-3.793-1.733-4.025-3.983L9.017 19.679c-.175-1.702 1.027-3.242 2.645-3.242h7.287v-1.596c0-2.888 2.255-5.241 5.05-5.241zm12.338 8.662l-7.288-.001v2.445c0 .504-.405.912-.904.912-.458 0-.836-.343-.896-.788l-.009-.124V18.26h-6.483v2.445c0 .504-.404.912-.904.912-.458 0-.836-.343-.896-.788l-.008-.124-.001-2.445h-7.287c-.453 0-.858.48-.853 1.095l.007.134 1.522 14.738c.14 1.36 1.116 2.348 2.226 2.348h18.872c1.11 0 2.085-.988 2.226-2.348l1.522-14.738c.07-.678-.36-1.228-.846-1.228zM24 11.424c-1.717 0-3.133 1.412-3.235 3.208l-.006.21-.001 1.595h6.483v-1.596c0-1.894-1.458-3.417-3.241-3.417z" transform="translate(-1056 -140) translate(0 88) translate(0 32) translate(1056 20)"/>
                    </g>
                </g>
            </g>
        </g>
    </g>
</svg>
