<svg xmlns="http://www.w3.org/2000/svg" width="48" height="48" viewBox="0 0 48 48">
    <g fill="none" fill-rule="evenodd">
        <g>
            <g>
                <g>
                    <g>
                        <path fill="#333" d="M29.611 12c.651 0 1.018.07 1.407.273.365.194.658.483.85.84.183.334.26.657.277 1.17l.003.23v13.683c.64-.379 1.384-.596 2.18-.596h.112c1.924 0 3.551 1.27 4.116 3.025.048-.017.1-.029.154-.036l.122-.008 1.502-.001.166-.007c.082-.007.114-.02.15-.04.032-.02.06-.05.085-.102.041-.086.06-.174.064-.462l-.002-5.928c-.002-.037-.005-.064-.008-.087l-.016-.074-.017-.042-.031-.053-.168-.224-2.983-3.8c-.06-.073-.087-.1-.113-.12l-.018-.012-.018-.007c-.02-.005-.041-.01-.085-.012l-.223-.004h-2.385c-.497 0-.9-.402-.9-.9 0-.455.339-.832.778-.891l.122-.009h2.385l.323.008c.185.01.322.033.469.074.235.065.447.172.647.324.154.119.273.239.445.45l.11.138 2.862 3.65c.208.266.3.4.39.58.093.184.156.37.19.561.031.16.043.3.046.545l.001 5.696c0 .648-.062 1.005-.246 1.385-.178.365-.447.664-.788.865-.326.193-.644.277-1.133.295l-.221.004h-1.38l-.081-.005c-.196 2.235-2.048 3.992-4.31 3.992h-.114c-2.261 0-4.113-1.756-4.31-3.99l-.045.003H14.75c-.198 2.232-2.049 3.987-4.31 3.987h-.113c-2.322 0-4.212-1.851-4.322-4.17-.121-.057-.235-.128-.343-.214-.305-.242-.529-.573-.673-.97-.104-.291-.163-.6-.182-.966l-.007-.285v-15.25c0-.647.072-1.014.28-1.398.196-.362.488-.65.855-.844.336-.176.658-.251 1.171-.268L7.338 12h22.273zm-19.17 17.4h-.114c-1.392 0-2.527 1.154-2.527 2.584 0 1.43 1.135 2.584 2.527 2.584h.113c1.393 0 2.528-1.154 2.528-2.584 0-1.43-1.135-2.584-2.528-2.584zm24 0h-.114c-1 0-1.866.595-2.276 1.46-.031.103-.07.202-.118.298-.087.259-.133.537-.133.826 0 1.43 1.135 2.584 2.527 2.584h.113c1.393 0 2.528-1.154 2.528-2.584 0-1.43-1.135-2.584-2.528-2.584zm-4.699-15.6H7.207c-.277.005-.355.023-.433.064-.052.027-.086.06-.112.109-.04.073-.057.146-.061.414L6.6 28.318l-.001.014v1.426c.719-1.234 2.017-2.08 3.518-2.153l.21-.005h.113c1.908 0 3.524 1.249 4.101 2.98h15.43c.134 0 .249-.065.316-.162.015-.048.034-.094.053-.14l.008-.057V14.514c0-.375-.016-.457-.063-.543-.025-.047-.058-.08-.106-.105-.081-.043-.16-.061-.437-.065z" transform="translate(-994 -140) translate(0 88) translate(0 32) translate(994 20)"/>
                    </g>
                </g>
            </g>
        </g>
    </g>
</svg>
