<svg xmlns="http://www.w3.org/2000/svg" width="48" height="48" viewBox="0 0 48 48">
    <g fill="none" fill-rule="evenodd">
        <g>
            <g>
                <g>
                    <g>
                        <path fill="#333" d="M34.893 24.3c.867 0 1.329.09 1.81.347.45.24.81.6 1.05 1.05.258.481.347.943.347 1.81v7.386c0 .867-.09 1.329-.347 1.81-.24.45-.6.81-1.05 1.05-.481.258-.943.347-1.81.347H13.107c-.867 0-1.329-.09-1.81-.347-.45-.24-.81-.6-1.05-1.05-.258-.481-.347-.943-.347-1.81v-7.386c0-.867.09-1.329.347-1.81.24-.45.6-.81 1.05-1.05.481-.258.943-.347 1.81-.347zm0 1.8l-21.97.001c-.452.008-.613.045-.778.133-.136.073-.238.175-.31.311-.1.185-.135.367-.135.962v7.386c0 .595.035.777.134.962.073.136.175.238.311.31.144.078.286.116.622.13l.34.005h21.786c.595 0 .777-.035.962-.134.136-.073.238-.175.31-.311.078-.144.116-.286.13-.622l.005-.34v-7.386c0-.595-.035-.777-.134-.962-.073-.136-.175-.238-.311-.31-.185-.1-.367-.135-.962-.135zM23.999 9.9c3.148 0 5.701 2.552 5.701 5.7s-2.552 5.7-5.701 5.7c-3.147 0-5.699-2.552-5.699-5.7 0-3.147 2.552-5.7 5.699-5.7zm0 1.8c-2.152 0-3.899 1.747-3.899 3.9 0 2.154 1.746 3.9 3.899 3.9 2.155 0 3.901-1.746 3.901-3.9 0-2.153-1.747-3.9-3.901-3.9z" transform="translate(-932 -140) translate(0 88) translate(0 32) translate(932 20)"/>
                    </g>
                </g>
            </g>
        </g>
    </g>
</svg>
